<?xml version="1.0" encoding="UTF-8" standalone="no"?>
<!DOCTYPE svg PUBLIC "-//W3C//DTD SVG 1.1//EN" "http://www.w3.org/Graphics/SVG/1.1/DTD/svg11.dtd">
<svg width="100%" height="100%" viewBox="0 0 512 512" version="1.1" xmlns="http://www.w3.org/2000/svg" xmlns:xlink="http://www.w3.org/1999/xlink" xml:space="preserve" xmlns:serif="http://www.serif.com/" style="fill-rule:evenodd;clip-rule:evenodd;stroke-linejoin:round;stroke-miterlimit:2;">
    <g transform="matrix(0.938279,0.938279,-0.938279,0.938279,286.883,-255.282)">
        <path d="M319.476,156.823C313.883,164.105 326.77,153.691 328.905,139.073C331.182,123.484 320.374,108.98 304.785,106.703C304.785,106.703 297.696,105.455 256,105.455C152.568,105.455 67.455,190.568 67.455,294C67.455,397.432 152.568,482.545 256,482.545C359.432,482.545 444.545,397.432 444.545,294C444.545,278.246 431.754,265.455 416,265.455C400.246,265.455 387.455,278.246 387.455,294C387.455,366.114 328.114,425.455 256,425.455C183.886,425.455 124.545,366.114 124.545,294C124.545,221.886 183.886,162.545 256,162.545C287.934,162.545 296.019,163.152 297.316,163.295C310.154,164.709 316.846,159.609 319.476,156.823Z" style="fill:white;"/>
        <path d="M235.816,78.184C235.816,78.184 271.932,114.301 295.631,138L235.816,197.816C224.676,208.956 224.676,227.044 235.816,238.184C246.956,249.324 265.044,249.324 276.184,238.184L356.184,158.184C367.332,147.037 367.332,128.963 356.184,117.816L276.184,37.816C265.044,26.676 246.956,26.676 235.816,37.816C224.676,48.956 224.676,67.044 235.816,78.184Z" style="fill:white;"/>
    </g>
</svg>
